<svg
  width="208"
  height="208"
  viewBox="0 0 208 208"
  fill="none"
  xmlns="http://www.w3.org/2000/svg"
>
<path
    d="M104 13C128.135 13 151.281 22.5875 168.347 39.6533C185.413 56.7191 195 79.8653 195 104C195 128.135 185.413 151.281 168.347 168.347C151.281 185.413 128.135 195 104 195C79.8653 195 56.7191 185.413 39.6533 168.347C22.5875 151.281 13 128.135 13 104C13 79.8653 22.5875 56.7191 39.6533 39.6533C56.7191 22.5875 79.8653 13 104 13ZM92.664 121.953L72.449 101.725C71.7243 101 70.864 100.425 69.9171 100.033C68.9702 99.641 67.9554 99.4392 66.9305 99.4392C65.9056 99.4392 64.8908 99.641 63.9439 100.033C62.997 100.425 62.1367 101 61.412 101.725C59.9484 103.189 59.1262 105.174 59.1262 107.243C59.1262 109.313 59.9484 111.298 61.412 112.762L87.152 138.502C87.8747 139.23 88.7343 139.808 89.6815 140.203C90.6286 140.597 91.6445 140.8 92.6705 140.8C93.6965 140.8 94.7124 140.597 95.6595 140.203C96.6067 139.808 97.4663 139.23 98.189 138.502L151.489 85.189C152.223 84.4673 152.808 83.6074 153.208 82.6587C153.608 81.7101 153.817 80.6916 153.822 79.662C153.827 78.6324 153.627 77.612 153.236 76.6597C152.844 75.7074 152.268 74.842 151.541 74.1135C150.813 73.3851 149.948 72.8078 148.996 72.4152C148.045 72.0225 147.024 71.8222 145.995 71.8258C144.965 71.8293 143.946 72.0367 142.997 72.436C142.048 72.8353 141.188 73.4185 140.465 74.152L92.664 121.953Z"
    fill="#55A0D2"
  />
</svg>
