<svg
  width="40"
  height="40"
  viewBox="0 0 40 40"
  fill="none"
  xmlns="http://www.w3.org/2000/svg"
>
<path
    d="M37.7121 18.3895C41.799 10.2629 36.1178 1.43893 26.7955 1.3957C19.1794 1.36028 11.5627 1.41028 3.94657 1.35612C2.56917 1.34622 2.0764 1.79206 2.10932 3.10403C2.14549 4.55039 2.17085 5.99831 2.17679 7.4457L2.10824 15.5285L3.74255 17.441L5.45296 15.5285V7.35716H5.42759C5.41841 7.04726 5.40654 6.73737 5.38657 6.42799C5.28348 4.82747 5.97218 4.3681 7.56385 4.38424C13.8663 4.44779 20.1736 4.29726 26.4712 4.47539C28.2928 4.52695 30.2601 5.11497 31.8631 5.97383C36.0924 8.23893 36.9268 14.8494 34.266 17.0822C29.6113 13.7874 24.1832 14.9202 18.6181 14.6926C18.6013 14.691 18.5857 14.6879 18.569 14.6879H17.4765C17.1559 14.6879 16.8963 14.9384 16.8963 15.2478V24.1973C16.8963 24.5061 17.1559 24.7572 17.4765 24.7572H18.569C18.5781 24.7572 18.5873 24.7551 18.5965 24.7546C24.0996 24.5931 29.6518 25.7171 34.429 22.3363C37.6981 26.5874 34.7614 34.6457 27.6742 34.8603C20.7867 35.0691 13.8873 34.8816 6.99389 34.9421C5.59437 34.954 5.372 34.3608 5.39898 33.2191C5.42921 31.953 5.44324 30.6858 5.45188 29.4191H5.45296V29.3066C5.4535 29.2353 5.45458 29.1645 5.45512 29.0931H5.45296V21.2457L3.78087 19.3332L2.18273 21.2457V29.0921H2.18219C2.18489 31.5191 2.17625 33.9374 2.13145 36.3551C2.10393 37.8363 2.66417 38.1488 4.0734 38.1395C11.6237 38.09 19.1745 38.1869 26.7248 38.1176C36.161 38.0311 41.7947 29.1936 37.6592 20.9691C37.1584 19.9717 37.235 19.3389 37.7121 18.3895ZM26.2839 21.4889C23.9096 21.5978 21.5294 21.5926 19.1486 21.5613V17.9869C21.9115 17.9915 24.6749 17.9686 27.4373 18.0103C29.1488 18.0358 30.7647 18.4306 32.0174 20.0994C30.1214 20.7681 28.2161 21.4004 26.2839 21.4889Z"
    fill="white"
  />
</svg>
