<svg
  width="32"
  height="32"
  viewBox="0 0 32 32"
  fill="none"
  xmlns="http://www.w3.org/2000/svg"
>
<path
    d="M5.33329 24.0002V23.1335C5.33329 22.6802 5.54663 22.2535 5.87996 22.0535C8.13329 20.7068 10.7066 20.0002 13.3333 20.0002C13.3733 20.0002 13.4 20.0002 13.44 20.0135C13.5733 19.0802 13.84 18.1868 14.2266 17.3735C13.9333 17.3468 13.64 17.3335 13.3333 17.3335C10.1066 17.3335 7.09329 18.2268 4.51996 19.7602C3.34663 20.4535 2.66663 21.7602 2.66663 23.1335V26.6668H15.0133C14.4533 25.8668 14.0133 24.9602 13.72 24.0002H5.33329ZM13.3333 16.0002C16.28 16.0002 18.6666 13.6135 18.6666 10.6668C18.6666 7.72016 16.28 5.3335 13.3333 5.3335C10.3866 5.3335 7.99996 7.72016 7.99996 10.6668C7.99996 13.6135 10.3866 16.0002 13.3333 16.0002ZM13.3333 8.00016C14.8 8.00016 16 9.20016 16 10.6668C16 12.1335 14.8 13.3335 13.3333 13.3335C11.8666 13.3335 10.6666 12.1335 10.6666 10.6668C10.6666 9.20016 11.8666 8.00016 13.3333 8.00016ZM27.6666 21.3335C27.6666 21.0402 27.6266 20.7735 27.5866 20.4935L29.1066 19.1468L27.7733 16.8402L25.84 17.4935C25.4133 17.1335 24.9333 16.8535 24.4 16.6535L24 14.6668H21.3333L20.9333 16.6535C20.4 16.8535 19.92 17.1335 19.4933 17.4935L17.56 16.8402L16.2266 19.1468L17.7466 20.4935C17.7066 20.7735 17.6666 21.0402 17.6666 21.3335C17.6666 21.6268 17.7066 21.8935 17.7466 22.1735L16.2266 23.5202L17.56 25.8268L19.4933 25.1735C19.92 25.5335 20.4 25.8135 20.9333 26.0135L21.3333 28.0002H24L24.4 26.0135C24.9333 25.8135 25.4133 25.5335 25.84 25.1735L27.7733 25.8268L29.1066 23.5202L27.5866 22.1735C27.6266 21.8935 27.6666 21.6268 27.6666 21.3335ZM22.6666 24.0002C21.2 24.0002 20 22.8002 20 21.3335C20 19.8668 21.2 18.6668 22.6666 18.6668C24.1333 18.6668 25.3333 19.8668 25.3333 21.3335C25.3333 22.8002 24.1333 24.0002 22.6666 24.0002Z"
    fill="#8097A4"
  />
</svg>
