<svg
  width="151"
  height="51"
  viewBox="0 0 151 51"
  fill="none"
  xmlns="http://www.w3.org/2000/svg"
>
<path
    d="M146.486 49.2593H146.485H4.35677H4.35557C3.51989 49.2604 2.68276 48.8784 2.03996 48.1362C1.3933 47.3896 1.00944 46.3487 1.00806 45.2375V5.19542C1.00943 4.08341 1.39324 3.04167 2.04004 2.29386C2.68292 1.55058 3.52037 1.16734 4.35677 1.16699C4.35687 1.16699 4.35697 1.16699 4.35707 1.16699L146.484 1.16699C146.901 1.16699 147.318 1.26182 147.714 1.45145C148.11 1.64137 148.48 1.92469 148.798 2.29339C149.117 2.66233 149.376 3.1079 149.555 3.60765C149.734 4.10744 149.827 4.64705 149.827 5.19461V5.19487L149.828 45.2381C149.828 45.7852 149.734 46.3244 149.556 46.8237C149.377 47.3229 149.118 47.7679 148.799 48.1363C148.481 48.5044 148.111 48.7872 147.715 48.9765C147.32 49.1656 146.903 49.2599 146.486 49.2593Z"
    fill="#FCFCFC"
    stroke="#001825"
    stroke-width="2"
  />
<path
    d="M41.6501 25.6252C41.6241 22.5028 44.0111 20.9837 44.1202 20.913C42.7684 18.7787 40.6731 18.4871 39.9368 18.4638C38.177 18.2633 36.47 19.6041 35.5736 19.6041C34.6593 19.6041 33.2788 18.4832 31.791 18.5161C29.8764 18.5481 28.0853 19.7485 27.103 21.6124C25.0757 25.4131 26.5877 30.9982 28.53 34.0703C29.5016 35.5758 30.6369 37.2548 32.1229 37.1957C33.5767 37.1317 34.1198 36.193 35.8742 36.193C37.6125 36.193 38.1225 37.1957 39.638 37.1579C41.1983 37.1317 42.1806 35.6466 43.1182 34.1284C44.241 32.4049 44.6919 30.7056 44.7098 30.6185C44.674 30.6049 41.6805 29.3668 41.6501 25.6252ZM38.7872 16.4429C39.5691 15.384 40.1041 13.9434 39.9556 12.4814C38.8239 12.5357 37.4085 13.3292 36.5935 14.3648C35.8724 15.2774 35.2283 16.7733 35.3947 18.18C36.666 18.2827 37.9713 17.4853 38.7872 16.4429Z"
    fill="#003049"
  />
<path
    d="M63.3139 36.9274H61.2856L60.1744 32.8865H56.3124L55.254 36.9274H53.2792L57.1064 23.1704H59.4697L63.3139 36.9274ZM59.8395 31.1912L58.8347 27.599C58.7284 27.232 58.5283 26.3678 58.2354 25.0074H58.1996C58.0817 25.5925 57.8933 26.4567 57.6352 27.599L56.6473 31.1912H59.8395ZM73.137 31.8455C73.137 33.5326 72.7413 34.8661 71.9491 35.845C71.2399 36.7165 70.3584 37.1517 69.3071 37.1517C68.1719 37.1517 67.3555 36.6834 66.8598 35.7448V40.9496H64.9556V30.2681C64.9556 29.2085 64.9315 28.122 64.885 27.0077H66.5597L66.666 28.58H66.7017C67.3368 27.3953 68.3005 26.803 69.5938 26.803C70.6049 26.803 71.4489 27.2651 72.1242 28.1902C72.7985 29.1175 73.137 30.3352 73.137 31.8455ZM71.1971 31.9262C71.1971 30.9607 71.0095 30.1647 70.6326 29.5372C70.2208 28.8849 69.6679 28.5583 68.9748 28.5583C68.505 28.5583 68.0781 28.7402 67.6967 29.0989C67.3144 29.4607 67.0644 29.9331 66.9474 30.5182C66.8951 30.737 66.8654 30.9622 66.8589 31.1891V32.8441C66.8589 33.5646 67.0501 34.1735 67.4323 34.6718C67.8146 35.1679 68.3112 35.4171 68.9222 35.4171C69.6394 35.4171 70.1976 35.0956 70.5968 34.4578C70.997 33.8179 71.1971 32.9744 71.1971 31.9262ZM82.9949 31.8455C82.9949 33.5326 82.5993 34.8661 81.807 35.845C81.097 36.7165 80.2163 37.1517 79.1641 37.1517C78.0289 37.1517 77.2126 36.6834 76.7168 35.7448V40.9496H74.8126V30.2681C74.8126 29.2085 74.7885 28.122 74.742 27.0077H76.4167L76.523 28.58H76.5588C77.1929 27.3953 78.1566 26.803 79.4508 26.803C80.461 26.803 81.3051 27.2651 81.9821 28.1902C82.6555 29.1175 82.9949 30.3352 82.9949 31.8455ZM81.0541 31.9262C81.0541 30.9607 80.8656 30.1647 80.4887 29.5372C80.077 28.8849 79.5259 28.5583 78.8328 28.5583C78.363 28.5583 77.936 28.7402 77.5529 29.0989C77.1706 29.4607 76.9214 29.9331 76.8044 30.5182C76.7463 30.7911 76.7151 31.0134 76.7151 31.1891V32.8441C76.7151 33.5646 76.9071 34.1735 77.2876 34.6718C77.6699 35.1669 78.1665 35.4171 78.7792 35.4171C79.4973 35.4171 80.0555 35.0956 80.4539 34.4578C80.854 33.8179 81.0541 32.9744 81.0541 31.9262ZM94.0167 33.0684C94.0167 34.2397 93.663 35.1917 92.96 35.9267C92.1866 36.7289 91.1067 37.131 89.7223 37.131C88.4433 37.131 87.4179 36.8457 86.6444 36.274L87.0848 34.4371C87.9199 35.0098 88.8372 35.2951 89.8357 35.2951C90.5538 35.2951 91.1121 35.107 91.5104 34.7338C91.9097 34.3596 92.1115 33.8592 92.1115 33.2349C92.1115 32.6756 91.9445 32.2073 91.6167 31.8259C91.2871 31.4455 90.7423 31.0909 89.9768 30.7653C87.8958 29.867 86.8543 28.5531 86.8543 26.8247C86.8543 25.6959 87.2223 24.7717 87.9565 24.0491C88.6907 23.3276 89.6642 22.9668 90.8754 22.9668C91.957 22.9668 92.8582 23.1849 93.5736 23.6201L93.0958 25.4167C92.4224 24.995 91.6623 24.7841 90.812 24.7841C90.1403 24.7841 89.6133 24.9753 89.2364 25.3558C88.9193 25.6959 88.7586 26.1104 88.7586 26.6024C88.7586 27.1451 88.9417 27.5959 89.3061 27.9494C89.6223 28.275 90.1992 28.6296 91.0335 29.01C92.057 29.4876 92.8091 30.0437 93.2905 30.6826C93.7755 31.3214 94.0167 32.1184 94.0167 33.0684ZM100.329 28.6616H98.2297V33.4778C98.2297 34.7028 98.5995 35.3137 99.3408 35.3137C99.6811 35.3137 99.9634 35.2806 100.187 35.2114L100.239 36.885C99.8642 37.0473 99.3703 37.1289 98.7585 37.1289C98.0064 37.1289 97.4187 36.8633 96.9945 36.3319C96.572 35.8006 96.3594 34.9105 96.3594 33.6577V28.6575H95.109V27.0035H96.3594V25.1873L98.2297 24.5339V27.0035H100.329V28.6616ZM109.78 31.8858C109.78 33.4106 109.403 34.6624 108.651 35.6414C107.864 36.6493 106.818 37.1517 105.513 37.1517C104.253 37.1517 103.252 36.6689 102.505 35.7045C101.759 34.7379 101.385 33.5202 101.385 32.0512C101.385 30.5141 101.771 29.255 102.54 28.276C103.311 27.2961 104.349 26.8061 105.654 26.8061C106.911 26.8061 107.922 27.2899 108.686 28.2554C109.417 29.1919 109.78 30.4014 109.78 31.8858ZM107.806 31.9365C107.806 31.0278 107.637 30.2484 107.296 29.5961C106.897 28.8084 106.325 28.4146 105.585 28.4146C104.822 28.4146 104.237 28.8084 103.839 29.5961C103.498 30.2484 103.328 31.0413 103.328 31.9778C103.328 32.8875 103.498 33.669 103.839 34.3193C104.251 35.107 104.825 35.5008 105.569 35.5008C106.297 35.5008 106.868 35.0987 107.28 34.2996C107.63 33.6318 107.806 32.8472 107.806 31.9365ZM115.973 28.9459C115.775 28.9045 115.574 28.8841 115.372 28.8849C114.702 28.8849 114.184 29.1764 113.82 29.7636C113.504 30.2805 113.345 30.9338 113.345 31.7225V36.9274H111.441V30.1316C111.442 29.0903 111.424 28.0491 111.385 27.0087H113.044L113.114 28.9066H113.166C113.368 28.2543 113.684 27.7282 114.118 27.3343C114.516 26.9902 114.998 26.8038 115.495 26.803C115.671 26.803 115.83 26.8175 115.971 26.8433L115.973 28.9459ZM124.489 31.4982C124.494 31.8332 124.47 32.168 124.419 32.4978H118.707C118.728 33.4778 119.005 34.2283 119.535 34.7451C120.017 35.2062 120.639 35.4377 121.404 35.4377C122.25 35.4377 123.021 35.2827 123.715 34.9695L124.014 36.4984C123.203 36.9077 122.245 37.1114 121.14 37.1114C119.811 37.1114 118.768 36.6586 118.009 35.7551C117.252 34.8506 116.872 33.6349 116.872 32.1122C116.872 30.6175 117.225 29.3718 117.931 28.3784C118.671 27.3178 119.67 26.7875 120.928 26.7875C122.163 26.7875 123.098 27.3178 123.733 28.3784C124.236 29.2188 124.489 30.2608 124.489 31.4982ZM122.673 30.9265C122.687 30.2722 122.561 29.7088 122.303 29.2323C121.974 28.6182 121.466 28.3122 120.787 28.3122C120.164 28.3122 119.657 28.611 119.271 29.2105C118.954 29.6871 118.766 30.2598 118.707 30.9245L122.673 30.9265Z"
    fill="#003049"
  />
<path
    d="M55.4821 11.8408H53.5301V17.4248H55.4821C57.2661 17.4248 58.4261 16.3288 58.4261 14.6408C58.4261 12.9448 57.2661 11.8408 55.4821 11.8408ZM54.6501 16.4728V12.7848H55.4421C56.6181 12.7848 57.2821 13.4808 57.2821 14.6408C57.2821 15.8008 56.6181 16.4728 55.4421 16.4728H54.6501ZM64.7125 14.6168C64.7125 12.9448 63.4485 11.7608 61.8565 11.7608C60.2805 11.7608 58.9925 12.9448 58.9925 14.6168C58.9925 16.2968 60.2805 17.4808 61.8565 17.4808C63.4405 17.4808 64.7125 16.2968 64.7125 14.6168ZM60.1445 14.6168C60.1445 13.4808 60.8405 12.7688 61.8565 12.7688C62.8645 12.7688 63.5605 13.4808 63.5605 14.6168C63.5605 15.7528 62.8645 16.4808 61.8565 16.4808C60.8405 16.4808 60.1445 15.7528 60.1445 14.6168ZM66.6738 17.4328L67.9858 17.4248L69.0818 13.4488L70.1298 17.4248H71.4498L73.0098 11.8408H71.8018L70.8098 16.1528L69.7378 11.8408H68.4898L67.3538 16.1768L66.3698 11.8408H65.1698L66.6738 17.4328ZM77.3971 11.8328V15.6728L74.8611 11.8328H73.7411V17.4248H74.8611V13.5928L77.3971 17.4248H78.5171V11.8328H77.3971ZM79.6239 11.8408V17.4248H82.5839V16.5368H80.7439V11.8408H79.6239ZM88.7438 14.6168C88.7438 12.9448 87.4798 11.7608 85.8878 11.7608C84.3118 11.7608 83.0238 12.9448 83.0238 14.6168C83.0238 16.2968 84.3118 17.4808 85.8878 17.4808C87.4718 17.4808 88.7438 16.2968 88.7438 14.6168ZM84.1758 14.6168C84.1758 13.4808 84.8718 12.7688 85.8878 12.7688C86.8958 12.7688 87.5918 13.4808 87.5918 14.6168C87.5918 15.7528 86.8958 16.4808 85.8878 16.4808C84.8718 16.4808 84.1758 15.7528 84.1758 14.6168ZM93.369 17.4248H94.553L92.545 11.8328H91.241L89.233 17.4248H90.409L90.777 16.3608H93.001L93.369 17.4248ZM92.697 15.4648H91.081L91.889 13.1288L92.697 15.4648ZM97.2556 11.8408H95.3036V17.4248H97.2556C99.0396 17.4248 100.2 16.3288 100.2 14.6408C100.2 12.9448 99.0396 11.8408 97.2556 11.8408ZM96.4236 16.4728V12.7848H97.2156C98.3916 12.7848 99.0556 13.4808 99.0556 14.6408C99.0556 15.8008 98.3916 16.4728 97.2156 16.4728H96.4236ZM108.392 14.6168C108.392 12.9448 107.128 11.7608 105.536 11.7608C103.96 11.7608 102.672 12.9448 102.672 14.6168C102.672 16.2968 103.96 17.4808 105.536 17.4808C107.12 17.4808 108.392 16.2968 108.392 14.6168ZM103.824 14.6168C103.824 13.4808 104.52 12.7688 105.536 12.7688C106.544 12.7688 107.24 13.4808 107.24 14.6168C107.24 15.7528 106.544 16.4808 105.536 16.4808C104.52 16.4808 103.824 15.7528 103.824 14.6168ZM112.881 11.8328V15.6728L110.345 11.8328H109.225V17.4248H110.345V13.5928L112.881 17.4248H114.001V11.8328H112.881Z"
    fill="#003049"
  />
</svg>
