<svg
  width="151"
  height="51"
  viewBox="0 0 151 51"
  fill="none"
  xmlns="http://www.w3.org/2000/svg"
>
<path
    d="M147.181 51.4273H5.66081C3.2321 51.4273 1 49.0685 1 45.8739V6.55345C1 3.35887 3.23206 1 5.66081 1H147.181C149.61 1 151.842 3.35887 151.842 6.55345V45.8739C151.842 49.0685 149.61 51.4273 147.181 51.4273Z"
    fill="#003049"
    stroke="#003049"
    stroke-width="2"
  />
<path
    d="M51.504 13.416H49.552V19H51.504C53.288 19 54.448 17.904 54.448 16.216C54.448 14.52 53.288 13.416 51.504 13.416ZM50.672 18.048V14.36H51.464C52.64 14.36 53.304 15.056 53.304 16.216C53.304 17.376 52.64 18.048 51.464 18.048H50.672ZM60.7344 16.192C60.7344 14.52 59.4704 13.336 57.8784 13.336C56.3024 13.336 55.0144 14.52 55.0144 16.192C55.0144 17.872 56.3024 19.056 57.8784 19.056C59.4624 19.056 60.7344 17.872 60.7344 16.192ZM56.1664 16.192C56.1664 15.056 56.8624 14.344 57.8784 14.344C58.8864 14.344 59.5824 15.056 59.5824 16.192C59.5824 17.328 58.8864 18.056 57.8784 18.056C56.8624 18.056 56.1664 17.328 56.1664 16.192ZM62.6956 19.008L64.0076 19L65.1036 15.024L66.1516 19H67.4716L69.0316 13.416H67.8236L66.8316 17.728L65.7596 13.416H64.5116L63.3756 17.752L62.3916 13.416H61.1916L62.6956 19.008ZM73.4189 13.408V17.248L70.8829 13.408H69.7629V19H70.8829V15.168L73.4189 19H74.5389V13.408H73.4189ZM75.6458 13.416V19H78.6058V18.112H76.7658V13.416H75.6458ZM84.7656 16.192C84.7656 14.52 83.5016 13.336 81.9096 13.336C80.3336 13.336 79.0456 14.52 79.0456 16.192C79.0456 17.872 80.3336 19.056 81.9096 19.056C83.4936 19.056 84.7656 17.872 84.7656 16.192ZM80.1976 16.192C80.1976 15.056 80.8936 14.344 81.9096 14.344C82.9176 14.344 83.6136 15.056 83.6136 16.192C83.6136 17.328 82.9176 18.056 81.9096 18.056C80.8936 18.056 80.1976 17.328 80.1976 16.192ZM89.3909 19H90.5749L88.5669 13.408H87.2629L85.2549 19H86.4309L86.7989 17.936H89.0229L89.3909 19ZM88.7189 17.04H87.1029L87.9109 14.704L88.7189 17.04ZM93.2774 13.416H91.3254V19H93.2774C95.0614 19 96.2214 17.904 96.2214 16.216C96.2214 14.52 95.0614 13.416 93.2774 13.416ZM92.4454 18.048V14.36H93.2374C94.4134 14.36 95.0774 15.056 95.0774 16.216C95.0774 17.376 94.4134 18.048 93.2374 18.048H92.4454ZM104.414 16.192C104.414 14.52 103.15 13.336 101.558 13.336C99.9821 13.336 98.6941 14.52 98.6941 16.192C98.6941 17.872 99.9821 19.056 101.558 19.056C103.142 19.056 104.414 17.872 104.414 16.192ZM99.8461 16.192C99.8461 15.056 100.542 14.344 101.558 14.344C102.566 14.344 103.262 15.056 103.262 16.192C103.262 17.328 102.566 18.056 101.558 18.056C100.542 18.056 99.8461 17.328 99.8461 16.192ZM108.903 13.408V17.248L106.367 13.408H105.247V19H106.367V15.168L108.903 19H110.023V13.408H108.903Z"
    fill="white"
  />
<path
    d="M115.738 38.3882H117.64V25.1924H115.738L115.738 38.3882ZM132.871 29.9458L130.69 35.6669H130.625L128.362 29.9458H126.313L129.706 37.942L127.772 42.3899H129.756L134.986 29.9458L132.871 29.9458ZM122.083 36.8894C121.46 36.8894 120.591 36.5669 120.591 35.7687C120.591 34.7502 121.674 34.3598 122.607 34.3598C123.444 34.3598 123.837 34.5465 124.345 34.8014C124.198 36.0235 123.181 36.8894 122.083 36.8894ZM122.313 29.6571C120.936 29.6571 119.509 30.2855 118.919 31.6776L120.607 32.4074C120.968 31.6776 121.64 31.4396 122.345 31.4396C123.329 31.4396 124.329 32.0511 124.345 33.1376V33.2733C124.001 33.0695 123.264 32.764 122.362 32.764C120.542 32.764 118.689 33.7994 118.689 35.7348C118.689 37.5005 120.181 38.6381 121.853 38.6381C123.132 38.6381 123.837 38.0439 124.28 37.3479H124.345V38.3664H126.181V33.307C126.181 30.9647 124.493 29.6571 122.313 29.6571ZM110.557 31.5521H107.852V27.029H110.557C111.979 27.029 112.787 28.2482 112.787 29.2905C112.787 30.3131 111.979 31.5521 110.557 31.5521ZM110.508 25.1924H105.951V38.3882H107.852V33.3887H110.508C112.616 33.3887 114.689 31.8082 114.689 29.2905C114.689 26.7729 112.616 25.1924 110.508 25.1924ZM85.6545 36.8918C84.3404 36.8918 83.2402 35.7526 83.2402 34.1878C83.2402 32.6066 84.3404 31.45 85.6545 31.45C86.9519 31.45 87.9701 32.6065 87.9701 34.1878C87.9701 35.7526 86.9519 36.8918 85.6545 36.8918ZM87.8386 30.6847H87.7729C87.3461 30.1577 86.5246 29.6815 85.4901 29.6815C83.3223 29.6815 81.3353 31.654 81.3353 34.1878C81.3353 36.7047 83.3222 38.6603 85.4901 38.6603C86.5246 38.6603 87.3461 38.1841 87.7729 37.6402H87.8386V38.2863C87.8386 40.0042 86.9519 40.9224 85.5231 40.9224C84.3571 40.9224 83.6345 40.0548 83.3386 39.3237L81.6802 40.0379C82.1564 41.2283 83.421 42.6909 85.5231 42.6909C87.7566 42.6909 89.6453 41.3301 89.6453 38.0142V29.9536H87.8386V30.6847ZM90.9589 38.3882H92.864V25.1919H90.9589V38.3882ZM95.6723 34.0348C95.623 32.3001 96.9697 31.4161 97.9386 31.4161C98.6945 31.4161 99.3347 31.807 99.5478 32.3687L95.6723 34.0348ZM101.585 32.5385C101.224 31.5348 100.123 29.6815 97.8728 29.6815C95.6393 29.6815 93.7837 31.5011 93.7837 34.1709C93.7837 36.6878 95.623 38.6603 98.0863 38.6603C100.074 38.6603 101.224 37.4019 101.7 36.6708L100.222 35.6503C99.7292 36.3987 99.0554 36.8918 98.0863 36.8918C97.1174 36.8918 96.4278 36.4325 95.9841 35.5315L101.781 33.0485L101.585 32.5385ZM55.3979 31.059V32.9636H59.7991C59.6677 34.0348 59.3228 34.817 58.7972 35.3613C58.1569 36.0247 57.1551 36.7558 55.3978 36.7558C52.688 36.7558 50.5697 34.4941 50.5697 31.6882C50.5697 28.8823 52.688 26.6204 55.3979 26.6204C56.8596 26.6204 57.9268 27.2157 58.7152 27.9809L60.0125 26.6376C58.9123 25.549 57.4505 24.7158 55.3979 24.7158C51.6862 24.7158 48.5659 27.8449 48.5659 31.6882C48.5659 35.5315 51.6862 38.6603 55.3979 38.6603C57.4016 38.6603 58.9123 37.9804 60.0946 36.7047C61.3099 35.4462 61.6878 33.6778 61.6878 32.2495C61.6878 31.807 61.6551 31.3992 61.589 31.059H55.3979ZM66.6916 36.8918C65.3775 36.8918 64.2442 35.7694 64.2442 34.1709C64.2442 32.5553 65.3775 31.45 66.6916 31.45C68.0051 31.45 69.1384 32.5553 69.1384 34.1709C69.1384 35.7695 68.0051 36.8918 66.6916 36.8918ZM66.6916 29.6815C64.2936 29.6815 62.3392 31.569 62.3392 34.1709C62.3392 36.7558 64.2936 38.6603 66.6916 38.6603C69.0891 38.6603 71.0434 36.7558 71.0434 34.1709C71.0434 31.569 69.0891 29.6815 66.6916 29.6815ZM76.1853 36.8918C74.8718 36.8918 73.7384 35.7694 73.7384 34.1709C73.7384 32.5553 74.8718 31.45 76.1853 31.45C77.499 31.45 78.6323 32.5553 78.6323 34.1709C78.6323 35.7695 77.499 36.8918 76.1853 36.8918ZM76.1853 29.6815C73.7874 29.6815 71.8335 31.569 71.8335 34.1709C71.8335 36.7558 73.7874 38.6603 76.1853 38.6603C78.5829 38.6603 80.5373 36.7558 80.5373 34.1709C80.5373 31.569 78.5829 29.6815 76.1853 29.6815Z"
    fill="white"
  />
<path
    d="M17.6265 14.6776C17.323 14.9652 17.1418 15.4451 17.1418 16.082V15.938V36.9556V36.8172C17.1418 37.4054 17.2972 37.8597 17.5604 38.1522L17.6276 38.2198V38.2201C17.8407 38.422 18.1138 38.5292 18.4269 38.5289C18.7329 38.5289 19.0771 38.4264 19.4403 38.2101L32.5704 30.3742L37.0805 27.6823C37.6533 27.3405 37.9748 26.8996 38.0286 26.4505V26.4487C37.9748 25.9985 37.6533 25.5579 37.0805 25.2161L32.57 22.5246L19.4404 14.6887C19.0763 14.472 18.7319 14.3691 18.4251 14.3691C18.1124 14.3691 17.8396 14.476 17.6266 14.6776H17.6265Z"
    fill="#00C1FF"
  />
<path
    d="M17.6276 38.2197L17.5604 38.1522C17.2972 37.8597 17.1418 37.4054 17.1418 36.8172V36.9556V15.9432V16.082C17.1418 15.445 17.323 14.9652 17.6265 14.6775L28.8341 26.449L17.6276 38.2197Z"
    fill="url(#paint0_linear_124_4560)"
  />
<path
    d="M32.5702 30.3745L28.8339 26.4494L32.5699 22.5249L37.0803 25.2164C37.6531 25.5583 37.9747 25.9988 38.0284 26.449V26.4508C37.9747 26.8999 37.6531 27.3409 37.0803 27.6826L32.5702 30.3745"
    fill="url(#paint1_linear_124_4560)"
  />
<path
    d="M18.427 38.5288C18.1139 38.5291 17.8408 38.4218 17.6277 38.22V38.2197L28.8342 26.4489L32.5705 30.3741L19.4404 38.21C19.0771 38.4264 18.7329 38.5288 18.427 38.5288Z"
    fill="url(#paint2_linear_124_4560)"
  />
<path
    d="M28.8343 26.4492L17.6268 14.6777C17.8398 14.4762 18.1126 14.3693 18.4253 14.3693C18.7321 14.3693 19.0765 14.4721 19.4405 14.6888L32.5703 22.5247L28.8343 26.4492"
    fill="url(#paint3_linear_124_4560)"
  />
<path
    d="M18.4272 38.668C18.1142 38.668 17.8406 38.5607 17.6276 38.3588L17.6272 38.3592C17.6263 38.3582 17.6254 38.3574 17.6244 38.3566L17.5661 38.2968C17.5643 38.2949 17.5626 38.2928 17.5604 38.2906L17.6276 38.22C17.8407 38.4219 18.1138 38.5291 18.4269 38.5288C18.7328 38.5288 19.077 38.4264 19.4403 38.21L32.5704 30.3741L32.6545 30.4625L32.5693 30.5133L19.4402 38.3488C19.1092 38.5459 18.7943 38.6487 18.5099 38.6658C18.4823 38.6672 18.4548 38.6679 18.4272 38.6679"
    fill="url(#paint4_linear_124_4560)"
  />
<path
    d="M17.561 38.2905C17.2974 37.998 17.1418 37.5441 17.1418 36.9555V36.8171C17.1418 37.4053 17.2974 37.8596 17.561 38.1521L17.6283 38.2196L17.561 38.2905"
    fill="url(#paint5_linear_124_4560)"
  />
<path
    d="M32.6547 30.4628L32.5706 30.3745L37.0806 27.6826C37.6534 27.3409 37.975 26.8999 38.0288 26.4508C38.0288 26.6156 37.9937 26.7804 37.9242 26.9408C37.7839 27.264 37.5027 27.5695 37.0807 27.8214L32.6547 30.4629"
    fill="url(#paint6_linear_124_4560)"
  />
<path
    d="M38.0291 26.4487C37.9754 25.9985 37.6538 25.558 37.0811 25.2161L32.5706 22.5246L32.6547 22.4362H32.655L37.0811 25.0777C37.7125 25.4548 38.0288 25.9517 38.0291 26.4487"
    fill="url(#paint7_linear_124_4560)"
  />
<path
    d="M17.1418 16.082V15.9368C17.1418 15.8845 17.1431 15.8333 17.1457 15.7836V15.7813C17.1457 15.7807 17.1457 15.7799 17.1459 15.7792V15.7736C17.1732 15.2669 17.3232 14.8717 17.561 14.6078L17.6272 14.6776C17.3232 14.9653 17.1418 15.4451 17.1418 16.082Z"
    fill="url(#paint8_linear_124_4560)"
  />
<path
    d="M32.57 22.5249L19.4403 14.6889C19.0763 14.4722 18.7318 14.3694 18.4251 14.3694C18.1124 14.3694 17.8396 14.4763 17.6266 14.6779L17.5604 14.6081C17.5811 14.5851 17.6025 14.563 17.6248 14.5417C17.6255 14.5409 17.6266 14.5402 17.6272 14.5394C17.8386 14.3394 18.1085 14.2325 18.4184 14.2306H18.4251C18.7318 14.2306 19.0763 14.3334 19.4403 14.5502L32.6545 22.4362L32.6541 22.4365L32.57 22.5249"
    fill="url(#paint9_linear_124_4560)"
  />
<defs>
<linearGradient
      id="paint0_linear_124_4560"
      x1="24.3041"
      y1="15.7211"
      x2="14.1864"
      y2="25.3848"
      gradientUnits="userSpaceOnUse"
    >
<stop stop-color="#00A0FF" />
<stop offset="0.00657" stop-color="#00A1FF" />
<stop offset="0.2601" stop-color="#00BEFF" />
<stop offset="0.5122" stop-color="#00D2FF" />
<stop offset="0.7604" stop-color="#00DFFF" />
<stop offset="1" stop-color="#00E3FF" />
</linearGradient>
<linearGradient
      id="paint1_linear_124_4560"
      x1="38.7263"
      y1="26.3816"
      x2="16.8383"
      y2="26.3816"
      gradientUnits="userSpaceOnUse"
    >
<stop stop-color="#FFE000" />
<stop offset="0.4087" stop-color="#FFBD00" />
<stop offset="0.7754" stop-color="#FFA500" />
<stop offset="1" stop-color="#FF9C00" />
</linearGradient>
<linearGradient
      id="paint2_linear_124_4560"
      x1="30.5868"
      y1="30.1808"
      x2="13.4477"
      y2="46.4315"
      gradientUnits="userSpaceOnUse"
    >
<stop stop-color="#FF3A44" />
<stop offset="1" stop-color="#C31162" />
</linearGradient>
<linearGradient
      id="paint3_linear_124_4560"
      x1="14.7383"
      y1="12.9326"
      x2="22.3773"
      y2="20.1868"
      gradientUnits="userSpaceOnUse"
    >
<stop stop-color="#32A071" />
<stop offset="0.0685" stop-color="#2DA771" />
<stop offset="0.4762" stop-color="#15CF74" />
<stop offset="0.8009" stop-color="#06E775" />
<stop offset="1" stop-color="#00F076" />
</linearGradient>
<linearGradient
      id="paint4_linear_124_4560"
      x1="30.5785"
      y1="32.9035"
      x2="16.8479"
      y2="46.0183"
      gradientUnits="userSpaceOnUse"
    >
<stop stop-color="#CC2E36" />
<stop offset="1" stop-color="#9C0E4E" />
</linearGradient>
<linearGradient
      id="paint5_linear_124_4560"
      x1="18.6369"
      y1="15.721"
      x2="9.72283"
      y2="24.2471"
      gradientUnits="userSpaceOnUse"
    >
<stop stop-color="#008DE0" />
<stop offset="0.00657" stop-color="#008DE0" />
<stop offset="0.2601" stop-color="#00A7E0" />
<stop offset="0.5122" stop-color="#00B8E0" />
<stop offset="0.7604" stop-color="#00C4E0" />
<stop offset="1" stop-color="#00C7E0" />
</linearGradient>
<linearGradient
      id="paint6_linear_124_4560"
      x1="38.7267"
      y1="26.4499"
      x2="16.8386"
      y2="26.4499"
      gradientUnits="userSpaceOnUse"
    >
<stop stop-color="#E0C500" />
<stop offset="0.4087" stop-color="#E0A600" />
<stop offset="0.7754" stop-color="#E09100" />
<stop offset="1" stop-color="#E08900" />
</linearGradient>
<linearGradient
      id="paint7_linear_124_4560"
      x1="38.727"
      y1="26.4497"
      x2="16.8391"
      y2="26.4497"
      gradientUnits="userSpaceOnUse"
    >
<stop stop-color="#FFE840" />
<stop offset="0.4087" stop-color="#FFCE40" />
<stop offset="0.7754" stop-color="#FFBC40" />
<stop offset="1" stop-color="#FFB540" />
</linearGradient>
<linearGradient
      id="paint8_linear_124_4560"
      x1="18.6276"
      y1="15.7373"
      x2="10.0593"
      y2="23.5776"
      gradientUnits="userSpaceOnUse"
    >
<stop stop-color="#40B8FF" />
<stop offset="0.00657" stop-color="#40B9FF" />
<stop offset="0.2601" stop-color="#40CEFF" />
<stop offset="0.5122" stop-color="#40DDFF" />
<stop offset="0.7604" stop-color="#40E7FF" />
<stop offset="1" stop-color="#40EAFF" />
</linearGradient>
<linearGradient
      id="paint9_linear_124_4560"
      x1="14.7217"
      y1="15.4221"
      x2="20.853"
      y2="21.2785"
      gradientUnits="userSpaceOnUse"
    >
<stop stop-color="#65B895" />
<stop offset="0.0685" stop-color="#62BD95" />
<stop offset="0.4762" stop-color="#50DB97" />
<stop offset="0.8009" stop-color="#44ED98" />
<stop offset="1" stop-color="#40F498" />
</linearGradient>
</defs>
</svg>
