<svg
  width="32"
  height="32"
  viewBox="0 0 32 32"
  fill="none"
  xmlns="http://www.w3.org/2000/svg"
>
<g clip-path="url(#clip0_106_4418)">
<path
      d="M-0.30542 27.5561C-0.30542 27.5561 4.30859 21.6649 15.6935 21.6649C27.0785 21.6649 31.6946 27.5561 31.6946 27.5561H-0.30542ZM15.6935 14.4199C17.3405 14.4199 18.9201 13.7657 20.0847 12.6011C21.2493 11.4365 21.9035 9.85696 21.9035 8.20997C21.9035 6.56299 21.2493 4.98346 20.0847 3.81886C18.9201 2.65426 17.3405 2 15.6935 2C14.0466 2 12.467 2.65426 11.3024 3.81886C10.1378 4.98346 9.48357 6.56299 9.48357 8.20997C9.48357 9.85696 10.1378 11.4365 11.3024 12.6011C12.467 13.7657 14.0466 14.4199 15.6935 14.4199V14.4199Z"
      stroke="#8097A4"
      stroke-width="2"
      stroke-linecap="round"
      stroke-linejoin="round"
    />
</g>
<defs>
<clipPath id="clip0_106_4418">
<rect width="32" height="32" fill="white" />
</clipPath>
</defs>
</svg>
