<svg
  width="32"
  height="32"
  viewBox="0 0 32 32"
  fill="none"
  xmlns="http://www.w3.org/2000/svg"
>
<path
    d="M23.04 11.6265C23.2273 11.814 23.3325 12.0682 23.3325 12.3332C23.3325 12.5982 23.2273 12.8523 23.04 13.0398L20.3734 15.7065C20.1859 15.8938 19.9317 15.999 19.6667 15.999C19.4017 15.999 19.1475 15.8938 18.96 15.7065L17.6267 14.3732C17.5285 14.2816 17.4497 14.1712 17.395 14.0486C17.3403 13.9259 17.311 13.7935 17.3086 13.6592C17.3062 13.5249 17.3309 13.3916 17.3812 13.267C17.4315 13.1425 17.5064 13.0294 17.6013 12.9345C17.6963 12.8395 17.8094 12.7646 17.9339 12.7143C18.0584 12.664 18.1918 12.6393 18.3261 12.6417C18.4603 12.6441 18.5928 12.6735 18.7154 12.7281C18.8381 12.7828 18.9485 12.8616 19.04 12.9598L19.6667 13.5865L21.6267 11.6265C21.8142 11.4392 22.0684 11.3341 22.3334 11.3341C22.5984 11.3341 22.8525 11.4392 23.04 11.6265ZM23.04 20.3732C23.1383 20.2816 23.2171 20.1712 23.2717 20.0486C23.3264 19.9259 23.3558 19.7935 23.3582 19.6592C23.3605 19.5249 23.3358 19.3916 23.2855 19.267C23.2352 19.1425 23.1604 19.0294 23.0654 18.9345C22.9705 18.8395 22.8574 18.7646 22.7328 18.7143C22.6083 18.664 22.4749 18.6393 22.3407 18.6417C22.2064 18.6441 22.074 18.6735 21.9513 18.7281C21.8287 18.7828 21.7183 18.8616 21.6267 18.9598L19.6667 20.9198L19.04 20.2932C18.9485 20.1949 18.8381 20.1161 18.7154 20.0615C18.5928 20.0068 18.4603 19.9774 18.3261 19.975C18.1918 19.9727 18.0584 19.9974 17.9339 20.0477C17.8094 20.098 17.6963 20.1728 17.6013 20.2678C17.5064 20.3627 17.4315 20.4759 17.3812 20.6004C17.3309 20.7249 17.3062 20.8583 17.3086 20.9925C17.311 21.1268 17.3403 21.2592 17.395 21.3819C17.4497 21.5046 17.5285 21.615 17.6267 21.7065L18.96 23.0398C19.1475 23.2271 19.4017 23.3323 19.6667 23.3323C19.9317 23.3323 20.1859 23.2271 20.3734 23.0398L23.04 20.3732ZM9.33337 13.6665C9.33337 13.4013 9.43873 13.1469 9.62627 12.9594C9.8138 12.7719 10.0682 12.6665 10.3334 12.6665H15C15.2653 12.6665 15.5196 12.7719 15.7071 12.9594C15.8947 13.1469 16 13.4013 16 13.6665C16 13.9317 15.8947 14.1861 15.7071 14.3736C15.5196 14.5611 15.2653 14.6665 15 14.6665H10.3334C10.0682 14.6665 9.8138 14.5611 9.62627 14.3736C9.43873 14.1861 9.33337 13.9317 9.33337 13.6665ZM10.3334 19.9998C10.0682 19.9998 9.8138 20.1052 9.62627 20.2927C9.43873 20.4803 9.33337 20.7346 9.33337 20.9998C9.33337 21.2651 9.43873 21.5194 9.62627 21.7069C9.8138 21.8945 10.0682 21.9998 10.3334 21.9998H15C15.2653 21.9998 15.5196 21.8945 15.7071 21.7069C15.8947 21.5194 16 21.2651 16 20.9998C16 20.7346 15.8947 20.4803 15.7071 20.2927C15.5196 20.1052 15.2653 19.9998 15 19.9998H10.3334ZM21.3147 5.33317C21.2327 4.59982 20.8833 3.92242 20.3333 3.43047C19.7833 2.93851 19.0713 2.66653 18.3334 2.6665H13.6667C12.9288 2.66653 12.2168 2.93851 11.6668 3.43047C11.1168 3.92242 10.7674 4.59982 10.6854 5.33317H8.33337C7.53772 5.33317 6.77466 5.64924 6.21205 6.21185C5.64944 6.77446 5.33337 7.53752 5.33337 8.33317V26.3332C5.33337 27.1288 5.64944 27.8919 6.21205 28.4545C6.77466 29.0171 7.53772 29.3332 8.33337 29.3332H23.6667C24.0607 29.3332 24.4508 29.2556 24.8148 29.1048C25.1787 28.954 25.5095 28.7331 25.788 28.4545C26.0666 28.1759 26.2876 27.8452 26.4383 27.4812C26.5891 27.1172 26.6667 26.7271 26.6667 26.3332V8.33317C26.6667 7.93921 26.5891 7.5491 26.4383 7.18512C26.2876 6.82114 26.0666 6.49043 25.788 6.21185C25.5095 5.93327 25.1787 5.7123 24.8148 5.56153C24.4508 5.41077 24.0607 5.33317 23.6667 5.33317H21.3147ZM13.6667 8.6665H18.3334C19.3734 8.6665 20.2894 8.13717 20.828 7.33317H23.6667C23.9319 7.33317 24.1863 7.43853 24.3738 7.62606C24.5614 7.8136 24.6667 8.06795 24.6667 8.33317V26.3332C24.6667 26.5984 24.5614 26.8527 24.3738 27.0403C24.1863 27.2278 23.9319 27.3332 23.6667 27.3332H8.33337C8.06816 27.3332 7.8138 27.2278 7.62627 27.0403C7.43873 26.8527 7.33337 26.5984 7.33337 26.3332V8.33317C7.33337 8.06795 7.43873 7.8136 7.62627 7.62606C7.8138 7.43853 8.06816 7.33317 8.33337 7.33317H11.172C11.7107 8.13717 12.6267 8.6665 13.6667 8.6665ZM13.6667 4.6665H18.3334C18.5986 4.6665 18.8529 4.77186 19.0405 4.9594C19.228 5.14693 19.3334 5.40129 19.3334 5.6665C19.3334 5.93172 19.228 6.18607 19.0405 6.37361C18.8529 6.56115 18.5986 6.6665 18.3334 6.6665H13.6667C13.4015 6.6665 13.1471 6.56115 12.9596 6.37361C12.7721 6.18607 12.6667 5.93172 12.6667 5.6665C12.6667 5.40129 12.7721 5.14693 12.9596 4.9594C13.1471 4.77186 13.4015 4.6665 13.6667 4.6665Z"
    fill="#8097A4"
  />
</svg>
