<svg
  width="32"
  height="32"
  viewBox="0 0 32 32"
  fill="none"
  xmlns="http://www.w3.org/2000/svg"
>
<path
    d="M26.6666 4H6.66663C4.46129 4 2.66663 5.79467 2.66663 8V24C2.66663 26.2053 4.46129 28 6.66663 28H26.6666C28.1373 28 29.3333 26.804 29.3333 25.3333V6.66667C29.3333 5.196 28.1373 4 26.6666 4ZM6.66663 25.3333C5.93063 25.3333 5.33329 24.7347 5.33329 24V8C5.33329 7.26533 5.93063 6.66667 6.66663 6.66667H26.6666V10.6667H18.6666C17.196 10.6667 16 11.8627 16 13.3333V18.6667C16 20.1373 17.196 21.3333 18.6666 21.3333H26.668V25.3333H6.66663ZM26.6666 13.3333V18.6667H18.6666V13.3333H26.6666Z"
    fill="#8097A4"
  />
</svg>
